<?xml version="1.0" encoding="UTF-8"?>
<svg width="70px" height="70px" viewBox="0 0 70 70" version="1.1" xmlns="http://www.w3.org/2000/svg" xmlns:xlink="http://www.w3.org/1999/xlink">
    <!-- Generator: Sketch 52.4 (67378) - http://www.bohemiancoding.com/sketch -->
    <title>02_icon@2x</title>
    <desc>Created with Sketch.</desc>
    <g id="web" stroke="none" stroke-width="1" fill="none" fill-rule="evenodd">
        <g id="navrh" transform="translate(-913.000000, -3747.000000)">
            <g id="02_icon" transform="translate(913.000000, 3747.000000)">
                <g id="Group-14-Copy" fill="#DEE4F5">
                    <ellipse id="Oval-3" cx="34.6172037" cy="34.5480631" rx="34.6172037" ry="34.5480631"></ellipse>
                </g>
                <g id="Cup" transform="translate(18.000000, 19.000000)">
                    <path d="M7,0 L27,0 L27,12.0092465 C27,16.4224178 23.4244008,20 19.0092465,20 L14.9907535,20 C10.5775822,20 7,16.4244008 7,12.0092465 L7,0 Z" id="Rectangle-161" stroke="#909EC2" stroke-width="2.6" fill="#FFFFFF"></path>
                    <rect id="Rectangle-162" fill="#909EC2" x="16" y="19" width="3" height="15" rx="1.5"></rect>
                    <path d="M9,31.9989566 C9,31.4472481 9.45470893,31 9.9999602,31 L25.0000398,31 C25.5523026,31 26,31.4426603 26,31.9989566 L26,33.0010434 C26,33.5527519 25.5452911,34 25.0000398,34 L9.9999602,34 C9.44769743,34 9,33.5573397 9,33.0010434 L9,31.9989566 Z" id="Rectangle-162" fill="#909EC2"></path>
                    <rect id="Rectangle-162-Copy" fill="#909EC2" x="12" y="28" width="11" height="3" rx="1.5"></rect>
                    <path d="M0,1.99754465 C0,1.44661595 0.442660332,1 0.998956561,1 L2.00104344,1 C2.55275191,1 3,1.4463114 3,1.99754465 L3,9.00245535 C3,9.55338405 2.55733967,10 2.00104344,10 L0.998956561,10 C0.447248087,10 0,9.5536886 0,9.00245535 L0,1.99754465 Z" id="Rectangle-163" fill="#909EC2"></path>
                    <path d="M31,1.99754465 C31,1.44661595 31.4426603,1 31.9989566,1 L33.0010434,1 C33.5527519,1 34,1.4463114 34,1.99754465 L34,9.00245535 C34,9.55338405 33.5573397,10 33.0010434,10 L31.9989566,10 C31.4472481,10 31,9.5536886 31,9.00245535 L31,1.99754465 Z" id="Rectangle-163-Copy" fill="#909EC2"></path>
                    <rect id="Rectangle-164" fill="#DEE4F5" x="8" y="5" width="18" height="3"></rect>
                </g>
            </g>
        </g>
    </g>
</svg>