<?xml version="1.0" encoding="UTF-8"?>
<svg width="18px" height="12px" viewBox="0 0 18 12" version="1.1" xmlns="http://www.w3.org/2000/svg" xmlns:xlink="http://www.w3.org/1999/xlink">
    <!-- Generator: Sketch 52.4 (67378) - http://www.bohemiancoding.com/sketch -->
    <title>Shape@2x</title>
    <desc>Created with Sketch.</desc>
    <g id="web" stroke="none" stroke-width="1" fill="none" fill-rule="evenodd">
        <g id="navrh" transform="translate(-167.000000, -944.000000)" fill="#F78B46" fill-rule="nonzero">
            <g id="Group-10" transform="translate(142.000000, 776.000000)">
                <g id="Group-5">
                    <g id="Group-4">
                        <g id="Group-7">
                            <g id="np_mail_1707177_000000" transform="translate(25.000000, 168.000000)">
                                <path d="M1.47058824,8.01607656e-16 C1.30420114,8.01607656e-16 1.14538218,0.0326106647 1,0.0916632016 L8.56297143,6.81821918 C8.83607395,7.06059361 9.17810286,7.06059361 9.45036639,6.81821918 L17,0.0916632016 C16.8546221,0.0326106647 16.6957903,0 16.5294118,0 L1.47058824,8.01607656e-16 Z M0.0125629403,1 C0.00471120313,1.0650289 0,1.13457341 0,1.20231214 L0,10.4508671 C0,10.6450497 0.0321932884,10.832 0.0942220525,11 L5,5.85549133 L0.0125629403,1 Z M17.9873553,1 L13,5.8483237 L17.9055425,11 C17.9677263,10.8320092 18,10.6450405 18,10.4508671 L18,1.20231214 C18,1.13457341 17.995277,1.0650289 17.9874057,1 L17.9873553,1 Z M11.6033244,7 L10.3385022,8.08661414 C9.57169398,8.74444159 8.43513043,8.74355525 7.66832218,8.08661414 L6.41051559,7.00709076 L1,11.9928979 C1.04128155,11.9964489 1.08432148,12 1.12648221,12 L16.866491,12 C16.9112871,12 16.9569601,11.9973366 17,11.9928979 L11.6033244,7 Z" id="Shape"></path>
                            </g>
                        </g>
                    </g>
                </g>
            </g>
        </g>
    </g>
</svg>