<?xml version="1.0" encoding="UTF-8"?>
<svg width="216px" height="42px" viewBox="0 0 216 42" version="1.1" xmlns="http://www.w3.org/2000/svg" xmlns:xlink="http://www.w3.org/1999/xlink">
    <!-- Generator: Sketch 52.4 (67378) - http://www.bohemiancoding.com/sketch -->
    <title>wezeo_logo@1x</title>
    <desc>Created with Sketch.</desc>
    <g id="web" stroke="none" stroke-width="1" fill="none" fill-rule="evenodd">
        <g id="navrh" transform="translate(-652.000000, -2633.000000)" fill="#2E2E2E">
            <g id="wezeo_logo" transform="translate(652.000000, 2633.000000)">
                <g id="wezeo_white">
                    <polygon id="Shape" fill-rule="nonzero" points="42.5266397 1.00285714 35.7580567 25.8428571 29.1337652 1.00285714 22.3214575 1.00285714 15.7015385 25.8428571 8.928583 1.00285714 0 1.00285714 10.9923887 41.3314286 15.4566802 41.3314286 19.9559514 41.3314286 25.7276113 22.5042857 31.4992713 41.3314286 36.002915 41.3314286 40.4672065 41.3314286 51.4552227 1.00285714"></polygon>
                    <path d="M195.077733,33.2871429 C188.392227,33.2871429 182.952874,27.8657143 182.952874,21.18 C182.952874,14.4942857 188.387854,9.05571429 195.077733,9.05571429 C201.767611,9.05571429 207.202591,14.4985714 207.202591,21.18 C207.202591,27.8614286 201.763239,33.2871429 195.077733,33.2871429 M215.833846,21.18 C215.833846,9.73714286 206.524858,0.428571429 195.077733,0.428571429 C183.630607,0.428571429 174.321619,9.73714286 174.321619,21.18 C174.321619,32.6228571 183.63498,41.9314286 195.077733,41.9314286 C206.520486,41.9314286 215.833846,32.6228571 215.833846,21.18" id="Shape" fill-rule="nonzero"></path>
                    <path d="M62.7624291,15.8528571 L62.7624291,15.8528571 C63.2495707,14.8644279 63.8702006,13.9447466 64.6076113,13.1185714 L64.6469636,13.0714286 C65.3783181,12.2695659 66.2149206,11.5662943 67.1348988,10.98 L67.2835628,10.89 C67.6792885,10.6435572 68.0895618,10.420309 68.5122267,10.2214286 L68.7395951,10.1142857 C69.2093377,9.90197491 69.6928088,9.72015448 70.1868826,9.57 L70.3967611,9.51428571 C70.8283631,9.39529202 71.2662591,9.29943567 71.708502,9.22714286 L72.1151417,9.16714286 C73.1587748,9.01474088 74.2196867,9.01474088 75.2633198,9.16714286 L75.665587,9.22714286 C76.1078684,9.2992424 76.5457751,9.39510109 76.9773279,9.51428571 L77.1872065,9.57 C77.6812803,9.72015448 78.1647514,9.90197491 78.6344939,10.1142857 L78.8618623,10.2214286 C79.28426,10.4208154 79.6945035,10.6440474 80.0905263,10.89 L80.2391903,10.98 C81.1483895,11.568423 81.9745975,12.2716076 82.6965182,13.0714286 L82.7358704,13.1185714 C83.4732812,13.9447466 84.0939111,14.8644279 84.5810526,15.8528571 L62.7624291,15.8528571 Z M94.3097976,19.41 C94.2879352,19.1571429 94.2617004,18.9 94.2310931,18.6514286 C94.2004858,18.4028571 94.1567611,18.1714286 94.1174089,17.9314286 C94.0085146,17.2316115 93.8625686,16.5378177 93.6801619,15.8528571 C92.8378343,12.6569398 91.2327769,9.70294596 88.997247,7.23428571 L88.7698785,6.98142857 C88.4681781,6.66 88.1533603,6.35142857 87.83417,6.04714286 C87.7117409,5.93142857 87.5805668,5.81571429 87.4537652,5.7 C87.1476923,5.42571429 86.837247,5.16 86.5136842,4.90285714 C86.3562753,4.77857143 86.185749,4.65857143 86.0239676,4.53857143 C85.7091498,4.30714286 85.3987045,4.07142857 85.0707692,3.85285714 C84.8608907,3.71571429 84.6335223,3.59571429 84.4280162,3.46285714 C83.9382996,3.16285714 83.4354656,2.88428571 82.9151417,2.60571429 C82.5959514,2.44285714 82.2767611,2.28 81.9488259,2.13857143 C81.6995951,2.03142857 81.4459919,1.93714286 81.1923887,1.83857143 C80.851336,1.70571429 80.5102834,1.57714286 80.1648583,1.46142857 C79.9112551,1.37571429 79.6576518,1.30285714 79.4040486,1.23 C79.0367611,1.12285714 78.6607287,1.02857143 78.2846964,0.942857143 C78.0398381,0.887142857 77.7949798,0.831428571 77.545749,0.784285714 C77.108502,0.702857143 76.6974899,0.642857143 76.2646154,0.587142857 C76.0547368,0.557142857 75.8273684,0.527142857 75.6306073,0.505714286 C74.9834818,0.445714286 74.3188664,0.407142857 73.662996,0.407142857 C62.2158704,0.407142857 52.9068826,9.71142857 52.9068826,21.15 C52.9068826,21.7842857 52.9462348,22.41 53.0030769,23.0314286 C53.0030769,23.1857143 53.0336842,23.34 53.0468016,23.4942857 C53.1167611,24.0942857 53.1998381,24.6942857 53.3222672,25.2814286 C53.3222672,25.3542857 53.3616194,25.4314286 53.3791093,25.5042857 C53.4884211,26.0142857 53.6195951,26.5157143 53.7682591,27.0085714 C53.8251012,27.1971429 53.8819433,27.3857143 53.9387854,27.57 C54.1049393,28.0757143 54.2842105,28.5771429 54.4897166,29.0657143 C54.5727935,29.2628571 54.6646154,29.4557143 54.7520648,29.6528571 C54.9007287,29.9785714 55.0537652,30.3 55.2155466,30.6171429 C55.3423482,30.8614286 55.4735223,31.1057143 55.6090688,31.3457143 C55.7446154,31.5857143 55.9195142,31.8642857 56.0812955,32.1257143 C56.3480162,32.5542857 56.6322267,32.9828571 56.9295547,33.3728571 C57.0344939,33.5185714 57.1394332,33.66 57.2487449,33.8014286 C57.9936931,34.7609506 58.8217019,35.6556961 59.7235628,36.4757143 L59.8197571,36.5614286 C60.7804686,37.4245347 61.8212558,38.1978873 62.928583,38.8714286 L63.2040486,39.0428571 C63.5451012,39.2485714 63.8992713,39.4371429 64.2578138,39.6214286 C64.6163563,39.8057143 64.8524696,39.9171429 65.1585425,40.05 C65.3946559,40.1571429 65.6307692,40.2642857 65.8756275,40.3628571 C66.2735223,40.5257143 66.6889069,40.6714286 67.099919,40.7914286 C67.2923077,40.8557143 67.4846964,40.9285714 67.6814575,40.9885714 C68.1187045,41.1257143 68.5909312,41.2371429 69.054413,41.34 C69.2380567,41.3828571 69.4260729,41.4342857 69.6140891,41.4685714 C70.0950607,41.5628571 70.5891498,41.6314286 71.0876113,41.6957143 C71.2625101,41.6957143 71.4374089,41.7514286 71.6166802,41.7685714 C72.2900405,41.8328571 72.9721457,41.8714286 73.6586235,41.8714286 C79.3996761,41.8714286 86.0764372,38.9314286 90.7987045,34.62 L84.5766802,28.7185714 C81.6471255,31.2214286 77.4320648,33.2871429 73.6455061,33.2871429 C73.2476113,33.2871429 72.8540891,33.2657143 72.4693117,33.2271429 L72.2419433,33.1971429 C71.9096356,33.1585714 71.5817004,33.1114286 71.2625101,33.0471429 L71.1357085,33.0171429 C69.6800718,32.7000248 68.2978786,32.118579 67.0605668,31.3028571 C64.668153,29.7467667 62.9015489,27.4243958 62.062834,24.7328571 C62.062834,24.66 62.0234818,24.5828571 62.0059919,24.51 L62.0059919,24.48 L94.1261538,24.48 C94.2048583,23.9871429 94.2791903,23.49 94.322915,22.9842857 C94.3753846,22.3842857 94.4147368,21.7842857 94.4147368,21.1714286 C94.4147368,20.5585714 94.3753846,19.9928571 94.3272874,19.4142857 L94.3097976,19.41 Z" id="Shape" fill-rule="nonzero"></path>
                    <path d="M138.371174,15.8528571 L138.371174,15.8528571 C138.858316,14.8644279 139.478946,13.9447466 140.216356,13.1185714 L140.255709,13.0714286 C140.977629,12.2716076 141.803837,11.568423 142.713036,10.98 L142.8617,10.89 C143.257426,10.6435572 143.667699,10.420309 144.090364,10.2214286 L144.317733,10.1142857 C144.787475,9.90197491 145.270946,9.72015448 145.76502,9.57 L145.974899,9.51428571 C146.406501,9.39529202 146.844397,9.29943567 147.28664,9.22714286 L147.693279,9.16714286 C148.736912,9.01474088 149.797824,9.01474088 150.841457,9.16714286 L151.243725,9.22714286 C151.686006,9.2992424 152.123913,9.39510109 152.555466,9.51428571 L152.765344,9.57 C153.259418,9.72015448 153.742889,9.90197491 154.212632,10.1142857 L154.44,10.2214286 C154.862402,10.4208068 155.272646,10.6440391 155.668664,10.89 L155.817328,10.98 C156.726527,11.568423 157.552735,12.2716076 158.274656,13.0714286 L158.314008,13.1185714 C159.051419,13.9447466 159.672049,14.8644279 160.15919,15.8528571 L138.371174,15.8528571 Z M169.918543,19.41 C169.89668,19.1571429 169.870445,18.9 169.839838,18.6514286 C169.809231,18.4028571 169.765506,18.1714286 169.726154,17.9314286 C169.61247,17.2285714 169.468178,16.53 169.288907,15.8528571 C168.438903,12.6545396 166.824741,9.70033856 164.579757,7.23428571 L164.352389,6.98142857 C164.050688,6.66 163.73587,6.35142857 163.41668,6.04714286 C163.294251,5.93142857 163.163077,5.81571429 163.036275,5.7 C162.730202,5.42571429 162.419757,5.16 162.096194,4.90285714 C161.938785,4.77857143 161.768259,4.65857143 161.606478,4.53857143 C161.29166,4.30714286 160.981215,4.07142857 160.653279,3.85285714 C160.443401,3.71571429 160.216032,3.59571429 160.010526,3.46285714 C159.516437,3.16285714 159.017976,2.88428571 158.497652,2.60571429 C158.178462,2.44285714 157.859271,2.28 157.531336,2.13857143 C157.282105,2.03142857 157.028502,1.93714286 156.774899,1.83857143 C156.433846,1.70571429 156.092794,1.57714286 155.747368,1.46142857 C155.493765,1.37571429 155.240162,1.30285714 154.986559,1.23 C154.619271,1.12285714 154.243239,1.02857143 153.867206,0.942857143 C153.622348,0.887142857 153.37749,0.831428571 153.128259,0.784285714 C152.691012,0.702857143 152.28,0.642857143 151.847126,0.587142857 C151.637247,0.557142857 151.409879,0.527142857 151.213117,0.505714286 C150.565992,0.445714286 149.901377,0.407142857 149.245506,0.407142857 C137.798381,0.407142857 128.489393,9.71142857 128.489393,21.15 C128.489393,21.7842857 128.528745,22.41 128.585587,23.0314286 C128.585587,23.1857143 128.616194,23.34 128.629312,23.4942857 C128.699271,24.0942857 128.782348,24.6942857 128.904777,25.2814286 C128.904777,25.3542857 128.94413,25.4314286 128.961619,25.5042857 C129.070931,26.0142857 129.202105,26.5157143 129.350769,27.0085714 C129.407611,27.1971429 129.460081,27.3857143 129.521296,27.57 C129.687449,28.0757143 129.866721,28.5771429 130.072227,29.0657143 C130.155304,29.2628571 130.247126,29.4557143 130.334575,29.6528571 C130.483239,29.9785714 130.636275,30.3 130.798057,30.6171429 C130.924858,30.8614286 131.056032,31.1057143 131.191579,31.3457143 C131.327126,31.5857143 131.502024,31.8642857 131.663806,32.1257143 C131.930526,32.5542857 132.214737,32.9828571 132.512065,33.3728571 C132.617004,33.5185714 132.721943,33.66 132.831255,33.8014286 C133.576203,34.7609506 134.404212,35.6556961 135.306073,36.4757143 L135.402267,36.5614286 C136.362979,37.4245347 137.403766,38.1978873 138.511093,38.8714286 L138.786559,39.0428571 C139.127611,39.2485714 139.481781,39.4371429 139.840324,39.6214286 C140.198866,39.8057143 140.43498,39.9171429 140.741053,40.05 C140.977166,40.1571429 141.213279,40.2642857 141.458138,40.3628571 C141.856032,40.5257143 142.271417,40.6714286 142.682429,40.7914286 C142.874818,40.8557143 143.067206,40.9285714 143.263968,40.9885714 C143.701215,41.1257143 144.173441,41.2371429 144.636923,41.34 C144.820567,41.3828571 145.008583,41.4342857 145.196599,41.4685714 C145.677571,41.5628571 146.17166,41.6314286 146.670121,41.6957143 C146.84502,41.6957143 147.019919,41.7514286 147.19919,41.7685714 C147.872551,41.8328571 148.554656,41.8714286 149.241134,41.8714286 C154.982186,41.8714286 161.658947,38.9314286 166.381215,34.62 L160.17668,28.7185714 C157.247126,31.2214286 153.032065,33.2871429 149.245506,33.2871429 C148.847611,33.2871429 148.454089,33.2657143 148.069312,33.2271429 L147.841943,33.1971429 C147.509636,33.1585714 147.1817,33.1114286 146.86251,33.0471429 L146.735709,33.0171429 C145.280072,32.7000248 143.897879,32.118579 142.660567,31.3028571 C140.268153,29.7467667 138.501549,27.4243958 137.662834,24.7328571 C137.662834,24.66 137.623482,24.5828571 137.605992,24.51 L137.605992,24.48 L169.726154,24.48 C169.804858,23.9871429 169.87919,23.49 169.922915,22.9842857 C169.975385,22.3842857 170.014737,21.7842857 170.014737,21.1714286 C170.014737,20.5585714 169.975385,19.9928571 169.927287,19.4142857 L169.918543,19.41 Z" id="Shape" fill-rule="nonzero"></path>
                    <polygon id="Shape" fill-rule="nonzero" points="121.29668 1.02 119.057976 1.02 95.8489069 1.02 95.8489069 9.39857143 113.815385 9.39857143 93.8419433 41.3442857 103.942348 41.3442857 127.055223 41.3442857 127.055223 32.9657143 109.180567 32.9657143 129.154008 1.02"></polygon>
                </g>
            </g>
        </g>
    </g>
</svg>